inDegrees=yes
name=IK-live
DataType=double
version=3
OpenSimVersion=4.1
endheader
time	pelvis_tilt	pelvis_list	pelvis_rotation	pelvis_tx	pelvis_ty	pelvis_tz	hip_flexion_r	hip_adduction_r	hip_rotation_r	knee_angle_r	ankle_angle_r	subtalar_angle_r	mtp_angle_r	hip_flexion_l	hip_adduction_l	hip_rotation_l	knee_angle_l	ankle_angle_l	subtalar_angle_l	mtp_angle_l	lumbar_extension	lumbar_bending	lumbar_rotation	neck_flex	neck_latbend	neck_rot	arm_flex_r	arm_add_r	arm_rot_r	elbow_flex_r	pro_sup_r	wrist_flex_r	wrist_dev_r	arm_flex_l	arm_add_l	arm_rot_l	elbow_flex_l	pro_sup_l	wrist_flex_l	wrist_dev_l
0	-6.83680653632161	13.56865738700275	-237.2179388860033	0.2341366603171506	0.04326292228651554	-1.326684523481465	-22.57117169827992	-1.591976316804377	-3.241458145969817	5.899560354604904	2.451982624139334	1.987972377786656	0	-24.74788768789517	-3.395140484746916	-11.58000132048591	9.793848132074926	-0.4439473045988533	4.250290820099795	0	-21.37711699760957	1.659277491615732	3.206407148933037	0	0	0	0.7803378773503484	-15.17650194998336	33.31122161178777	7.010359229996467	24.87453801083042	0	0.01257143617378297	5.871303443303569	-13.22979788115186	43.89862540021113	6.825086927009568	33.48029709741369	0	0.01257143617378297
5.4736471	1.381539447153881	17.49594574308474	-236.3490533648305	0.2341366603171506	0.04326292228651554	-1.326684523481465	-22.57117169827992	-1.591976316804377	-3.241458145969817	5.899560354604904	2.451982624139334	1.987972377786656	0	-24.74788768789517	-3.395140484746916	-11.58000132048591	9.793848132074926	-0.4439473045988533	4.250290820099795	0	-21.37711699760957	1.659277491615732	3.206407148933037	0	0	0	0.7772700803173274	-15.1765153755938	33.31520544503776	6.955945065788945	24.86428854232371	0	0.007896827673253131	5.868510843939331	-13.22966319327389	43.90456154379245	6.769161337889946	33.47525811541095	0	0.007896827673253131
6.3251675	-29.17359153471837	-5.350775894033617	-175.4208614465209	0.2341366603171506	0.04326292228651554	-1.326684523481465	-22.57117169827992	-1.591976316804377	-3.241458145969817	5.899560354604904	2.451982624139334	1.987972377786656	0	-24.74788768789517	-3.395140484746916	-11.58000132048591	9.793848132074926	-0.4439473045988533	4.250290820099795	0	-21.37711699760957	1.659277491615732	3.206407148933037	0	0	0	0.7813562751859253	-15.17649749655872	33.30990169989387	7.027680588659358	24.87791673099707	0	0.01410954145891422	5.872230588006301	-13.2298425585763	43.89665988070868	6.842854843039333	33.48196094424783	0	0.01410954145891422
6.4850839	-31.69318699045819	-26.2330585359785	-144.0615937108227	0.2341366603171506	0.04326292228651554	-1.326684523481465	-22.57117169827992	-1.591976316804377	-3.241458145969817	5.899560354604904	2.451982624139334	1.987972377786656	0	-24.74788768789517	-3.395140484746916	-11.58000132048591	9.793848132074926	-0.4439473045988533	4.250290820099795	0	-21.37711699760957	1.659277491615732	3.206407148933037	0	0	0	0.7801382109035786	-15.17650282964339	33.31148472368464	7.006088301311038	24.87384908215297	0	0.01225676055782175	5.871121883074479	-13.22978905619004	43.89901879258882	6.820657831835945	33.47996032275002	0	0.01225676055782175
6.6369672	-31.12057464199243	-29.37958011784959	-140.3618841857007	0.2341366603171506	0.04326292228651554	-1.326684523481465	-22.57117169827992	-1.591976316804377	-3.241458145969817	5.899560354604904	2.451982624139334	1.987972377786656	0	-24.74788768789517	-3.395140484746916	-11.58000132048591	9.793848132074926	-0.4439473045988533	4.250290820099795	0	-21.37711699760957	1.659277491615732	3.206407148933037	0	0	0	0.7811941778733805	-15.1764982043301	33.31011044517761	7.025041593080065	24.87740455212556	0	0.01388255639824922	5.872083033557626	-13.22983545812216	43.89696974432655	6.840134131897083	33.48170611044195	0	0.01388255639824922
6.797816	-34.15059055358511	-32.90705831505549	-141.5526393020456	0.2341366603171506	0.04326292228651554	-1.326684523481465	-22.57117169827992	-1.591976316804377	-3.241458145969817	5.899560354604904	2.451982624139334	1.987972377786656	0	-24.74788768789517	-3.395140484746916	-11.58000132048591	9.793848132074926	-0.4439473045988533	4.250290820099795	0	-21.37711699760957	1.659277491615732	3.206407148933037	0	0	0	0.7822778650393512	-15.17649346054765	33.30870240627435	7.043987810555639	24.8810297053939	0	0.01553668237325044	5.873069488863908	-13.22988304851875	43.89487149434218	6.85958493204082	33.4834885825416	0	0.01553668237325044
6.9497411	-40.27172519159799	-13.05432624154603	-177.7726993933762	0.2341366603171506	0.04326292228651554	-1.326684523481465	-22.57117169827992	-1.591976316804377	-3.241458145969817	5.899560354604904	2.451982624139334	1.987972377786656	0	-24.74788768789517	-3.395140484746916	-11.58000132048591	9.793848132074926	-0.4439473045988533	4.250290820099795	0	-21.37711699760957	1.659277491615732	3.206407148933037	0	0	0	0.786053052704461	-15.17647694016309	33.30380196309292	7.109225648269641	24.89359860982255	0	0.02126038796003386	5.876506042097891	-13.23004878363207	43.88757151616654	6.926557358407238	33.48967486371698	0	0.02126038796003386
7.1107442	-34.18351939924949	4.744018690772152	-205.7957904377313	0.2341366603171506	0.04326292228651554	-1.326684523481465	-22.57117169827992	-1.591976316804377	-3.241458145969817	5.899560354604904	2.451982624139334	1.987972377786656	0	-24.74788768789517	-3.395140484746916	-11.58000132048591	9.793848132074926	-0.4439473045988533	4.250290820099795	0	-21.37711699760957	1.659277491615732	3.206407148933037	0	0	0	0.7837126159225094	-15.17648718230785	33.30684058046551	7.069092108604307	24.88579117948193	0	0.0177003835559734	5.874375499070328	-13.22994603281399	43.89209848816889	6.885392321579086	33.48583320796821	0	0.0177003835559734
7.2625724	-24.18758889424455	13.98430813282564	-228.692292551142	0.2341366603171506	0.04326292228651554	-1.326684523481465	-22.57117169827992	-1.591976316804377	-3.241458145969817	5.899560354604904	2.451982624139334	1.987972377786656	0	-24.74788768789517	-3.395140484746916	-11.58000132048591	9.793848132074926	-0.4439473045988533	4.250290820099795	0	-21.37711699760957	1.659277491615732	3.206407148933037	0	0	0	0.7828000652656907	-15.1764911749302	33.30802455335175	7.053713489562655	24.88275798459599	0	0.01631934168446635	5.873544769526295	-13.22990597820738	43.89386189084888	6.86962888297706	33.48433937643605	0	0.01631934168446635
7.4244283	-11.46229578165832	19.75116558080902	-256.9817502350903	0.2341366603171506	0.04326292228651554	-1.326684523481465	-22.57117169827992	-1.591976316804377	-3.241458145969817	5.899560354604904	2.451982624139334	1.987972377786656	0	-24.74788768789517	-3.395140484746916	-11.58000132048591	9.793848132074926	-0.4439473045988533	4.250290820099795	0	-21.37711699760957	1.659277491615732	3.206407148933037	0	0	0	0.7820779862980501	-15.1764943369348	33.30896351697523	7.040996298846911	24.88033757006474	0	0.0152146160103047	5.872887511117489	-13.22987425644992	43.89526140331638	6.856568686155446	33.48314962425545	0	0.0152146160103047
7.5854034	-4.188606712065491	21.69646293973463	-271.2837356120981	0.2341366603171506	0.04326292228651554	-1.326684523481465	-22.57117169827992	-1.591976316804377	-3.241458145969817	5.899560354604904	2.451982624139334	1.987972377786656	0	-24.74788768789517	-3.395140484746916	-11.58000132048591	9.793848132074926	-0.4439473045988533	4.250290820099795	0	-21.37711699760957	1.659277491615732	3.206407148933037	0	0	0	0.7821195244241664	-15.17649415370751	33.30890842742366	7.041923481733746	24.88048864746693	0	0.01528557068383879	5.872925291468853	-13.22987609463361	43.89517874833339	6.857525687137282	33.48322268427859	0	0.01528557068383879
7.7373417	4.706348567118674	21.33625840274815	77.95087111386158	0.2341366603171506	0.04326292228651554	-1.326684523481465	-22.57117169827992	-1.591976316804377	-3.241458145969817	5.899560354604904	2.451982624139334	1.987972377786656	0	-24.74788768789517	-3.395140484746916	-11.58000132048591	9.793848132074926	-0.4439473045988533	4.250290820099795	0	-21.37711699760957	1.659277491615732	3.206407148933037	0	0	0	0.7832716818664803	-15.17648911257417	33.30741305171968	7.062214949565672	24.88432994574653	0	0.01703630480441457	5.873974119832962	-13.22992666807879	43.89295093579486	6.878376429617872	33.48511198690409	0	0.01703630480441457
7.8981304	22.45488691769805	25.95056814726735	71.02243903445363	0.2341366603171506	0.04326292228651554	-1.326684523481465	-22.57117169827992	-1.591976316804377	-3.241458145969817	5.899560354604904	2.451982624139334	1.987972377786656	0	-24.74788768789517	-3.395140484746916	-11.58000132048591	9.793848132074926	-0.4439473045988533	4.250290820099795	0	-21.37711699760957	1.659277491615732	3.206407148933037	0	0	0	0.7847063004620329	-15.17648282657465	33.30554491138771	7.087634294051043	24.88915921204952	0	0.01924303677530791	5.875279860779123	-13.2299897303167	43.89016548665438	6.904479463655409	33.48748438184226	0	0.01924303677530791
8.050027099999999	28.90200224229113	26.92552164103906	82.16369632755512	0.2341366603171506	0.04326292228651554	-1.326684523481465	-22.57117169827992	-1.591976316804377	-3.241458145969817	5.899560354604904	2.451982624139334	1.987972377786656	0	-24.74788768789517	-3.395140484746916	-11.58000132048591	9.793848132074926	-0.4439473045988533	4.250290820099795	0	-21.37711699760957	1.659277491615732	3.206407148933037	0	0	0	0.7865857543540401	-15.17647459397766	33.30309958666997	7.120189269533832	24.89546369832054	0	0.02212086101233521	5.876990550764136	-13.23007232112108	43.88652055482462	6.93787463628383	33.49058429119001	0	0.02212086101233521
8.2120119	13.98973374817522	26.3621344316196	-228.9669857335902	0.2341366603171506	0.04326292228651554	-1.326684523481465	-22.57117169827992	-1.591976316804377	-3.241458145969817	5.899560354604904	2.451982624139334	1.987972377786656	0	-24.74788768789517	-3.395140484746916	-11.58000132048591	9.793848132074926	-0.4439473045988533	4.250290820099795	0	-21.37711699760957	1.659277491615732	3.206407148933037	0	0	0	0.7824534298125826	-15.17649269353896	33.30847591324439	7.047018377097097	24.88158993099907	0	0.01578602012217174	5.873229292287416	-13.2298907432559	43.89453503301403	6.862716798129461	33.48376658100398	0	0.01578602012217174
